# xmcd
#
# Track frame offsets: 
#        150
#        19267
#        43802
#        62207
#        76092
#        97222
#        120827
#        133557
#        153317
#        170115
#
# Disc length: 2584 seconds
#
# Revision: 33
# Processed by: cddbd v1.5.2PL0 Copyright (c) Steve Scherf et al.
# Submitted via: ExactAudioCopyFreeDBPlugin 1.0
#
DISCID=800a160a
DTITLE=Tracy Chapman - Crossroads
DYEAR=1989
DGENRE=Blues
TTITLE0=Crossroads
TTITLE1=Bridges
TTITLE2=Freedom Now
TTITLE3=Material World
TTITLE4=Be Careful Of My Heart
TTITLE5=Subcity
TTITLE6=Born To Fight
TTITLE7=A Hundred Years
TTITLE8=This Time
TTITLE9=All That You Have Is Your Soul
EXTD=YEAR: 1989
EXTT0=
EXTT1=
EXTT2=
EXTT3=
EXTT4=
EXTT5=
EXTT6=
EXTT7=
EXTT8=
EXTT9=
PLAYORDER=
